<?xml version="1.0" encoding="UTF-8" standalone="no"?>
<!DOCTYPE svg PUBLIC "-//W3C//DTD SVG 1.1//EN" "http://www.w3.org/Graphics/SVG/1.1/DTD/svg11.dtd">
<!-- Created with Vectornator (http://vectornator.io/) -->
<svg height="100%" stroke-miterlimit="10" style="fill-rule:nonzero;clip-rule:evenodd;stroke-linecap:round;stroke-linejoin:round;" version="1.1" viewBox="76.9131 50.5041 832.286 218.992" width="100%" xml:space="preserve" xmlns="http://www.w3.org/2000/svg" xmlns:vectornator="http://vectornator.io" xmlns:xlink="http://www.w3.org/1999/xlink">
<defs/>
<g id="Layer-1" layerName="Layer 1">
<path d="M274.037 172.511C275.93 177.787 276.962 183.474 276.962 189.402C276.962 217.016 254.576 239.402 226.962 239.402C199.348 239.402 176.962 217.016 176.962 189.402C176.962 183.175 178.1 177.214 180.18 171.715" fill="#ded9c9" fill-opacity="0" fill-rule="nonzero" opacity="1" stroke="#4f3431" stroke-linecap="butt" stroke-linejoin="round" stroke-width="13" layerName="Curve 17"/>
<path d="M370.511 189.402C352.459 217.944 306.242 254.169 226.962 254.169C147.682 254.169 103.96 215.476 83.4131 189.402" fill="#ded9c9" fill-opacity="0" fill-rule="nonzero" opacity="1" stroke="#4f3431" stroke-linecap="butt" stroke-linejoin="round" stroke-width="13" layerName="Curve 18"/>
<g opacity="1" layerName="Chef 1">
<path d="M275.839 68.4752C270.476 68.4752 265.463 69.5477 260.924 71.32C253.314 62.6593 240.955 57.0041 226.962 57.0041C212.969 57.0041 200.61 62.6593 192.999 71.32C188.461 69.5477 183.447 68.4752 178.085 68.4752C158.806 68.4752 143.173 81.3171 143.173 97.1529C143.173 112.989 158.806 125.831 178.085 125.831L178.085 171.715L275.839 171.715L275.839 125.831C295.117 125.831 310.751 112.989 310.751 97.1529C310.751 81.3171 295.117 68.4752 275.839 68.4752ZM275.839 125.831C265.295 125.831 255.841 121.994 249.438 115.92M194.347 122.538C189.494 124.638 183.957 125.831 178.085 125.831" fill="none" opacity="1" stroke="#e59422" stroke-linecap="butt" stroke-linejoin="miter" stroke-width="13" layerName="path"/>
</g>
<path d="M673.55 159.126C695.115 153.883 719.243 121.469 726.802 97.6613C733.271 77.286 723.121 51.8051 702.963 57.9312C688.58 62.3025 690.84 95.5767 691.429 108.646C693.213 148.236 696.606 187.853 695.466 227.602C695.24 235.487 697.031 255.359 693.543 262.424C692.021 265.509 692.716 255.27 692.774 251.674C692.903 243.693 692.917 236.61 695.466 229.004C700.214 214.837 710.312 192.364 724.111 189.274C739.212 185.893 743.329 207.105 746.345 218.723C753.966 248.081 755.606 257.911 770.479 258.32" fill="none" opacity="1" stroke="#e59422" stroke-linecap="round" stroke-linejoin="round" stroke-width="13" layerName="Curve 19"/>
<path d="M370.631 132.275C368.986 127.967 384.56 29.646 398.699 64.4444C411.769 96.6148 411.654 152.712 413.117 191.04C413.646 204.887 414.324 218.814 414.655 232.678C414.679 233.669 414.476 262.792 414.394 262.684C406.056 251.76 412.218 132.294 413.886 112.128C414.673 102.611 415.537 70.4749 425.229 72.1677C434.402 73.77 434.405 100.193 435.61 111.456C439.455 147.411 442.074 183.692 446.184 219.582C446.441 221.827 452.29 260.705 450.591 262.684C447.925 265.788 447.358 244.852 446.63 239.402C444.87 226.226 443.764 209.242 443.3 195.741C442.532 173.391 437.218 98.2373 453.297 83.5848C458.268 79.054 463.037 121.789 463.486 125.224C468.341 162.377 470.24 235.34 489.026 262.684" fill="none" opacity="1" stroke="#4f3431" stroke-linecap="round" stroke-linejoin="round" stroke-width="13" layerName="Curve 20"/>
<path d="M498.857 229.753C516.969 235.791 536.478 185.766 517.518 185.766C507.023 185.766 504.416 202 503.3 209.315C498.797 238.832 503.451 283.611 541.955 251.524" fill="none" opacity="1" stroke="#4f3431" stroke-linecap="round" stroke-linejoin="round" stroke-width="13" layerName="Curve 21"/>
<path d="M541.955 212.565C544.273 204.736 548.109 193.532 553.745 187.413C560.779 179.777 563.124 200.993 563.674 204.181C566.359 219.728 568.557 248.357 568.247 262.609C568.204 264.614 568.432 258.276 568.638 256.28C569.146 251.378 570.788 245.461 571.741 240.71C572.802 235.421 581.186 192.603 590.358 196.396C605.899 202.823 590.514 254.334 609.595 260.472" fill="none" opacity="1" stroke="#4f3431" stroke-linecap="round" stroke-linejoin="round" stroke-width="13" layerName="Curve 22"/>
<path d="M779.676 201.258C779.676 201.258 779.987 226.966 780.117 228.666C780.892 238.74 784.814 261.618 799.299 262.934C816.857 264.531 825.79 234.636 829.989 222.825C829.995 222.809 831.376 201.258 831.376 201.258L830.888 224.622L833.792 262.621" fill="none" opacity="1" stroke="#e59422" stroke-linecap="round" stroke-linejoin="round" stroke-width="13" layerName="Curve 23"/>
<g opacity="1" layerName="Group 1">
<path d="M846.136 139.942C844.114 134.455 849.225 164.192 849.487 167.226C851.476 190.259 852.419 213.473 852.419 236.573C852.419 243.773 852.419 250.973 852.419 258.173C852.419 259.563 852.419 263.731 852.419 262.342" fill="none" opacity="1" stroke="#e59422" stroke-linecap="round" stroke-linejoin="round" stroke-width="13" layerName="Curve 24"/>
<path d="M852.419 205.362C858.898 188.631 878.77 194.471 885.508 198.642C909.273 213.354 909.51 254.345 879.225 261.471C873.796 262.748 858.025 262.618 852.419 262.618" fill="none" opacity="1" stroke="#e59422" stroke-linecap="round" stroke-linejoin="round" stroke-width="13" layerName="Curve 25"/>
</g>
<path d="M659.92 187.684C659.92 187.684 643.47 181.511 633.282 191.314C625.591 198.715 625.628 214.105 634.032 218.526C646.352 225.008 660.29 214.845 669.675 228.642C680.084 243.946 667.692 260.89 654.105 262.444C644.098 263.589 634.704 260.464 625.215 256.523" fill="none" opacity="1" stroke="#4f3431" stroke-linecap="round" stroke-linejoin="round" stroke-width="13" layerName="Curve 26"/>
</g>
</svg>
